<?xml version="1.0" encoding="UTF-8" standalone="no"?>
<!-- Created with Inkscape (http://www.inkscape.org/) -->

<svg
   xmlns:dc="http://purl.org/dc/elements/1.1/"
   xmlns:cc="http://creativecommons.org/ns#"
   xmlns:rdf="http://www.w3.org/1999/02/22-rdf-syntax-ns#"
   xmlns:svg="http://www.w3.org/2000/svg"
   xmlns="http://www.w3.org/2000/svg"
   xmlns:sodipodi="http://sodipodi.sourceforge.net/DTD/sodipodi-0.dtd"
   xmlns:inkscape="http://www.inkscape.org/namespaces/inkscape"
   width="800"
   height="800"
   id="svg2"
   version="1.1"
   inkscape:version="0.48.4 r9939"
   sodipodi:docname="jR.svg">
  <defs
     id="defs4">
    <clipPath
       clipPathUnits="userSpaceOnUse"
       id="clipPath3881">
      <g
         style="font-size:23.2343235px;font-style:normal;font-variant:normal;font-weight:normal;font-stretch:normal;text-align:start;line-height:125%;letter-spacing:0px;word-spacing:0px;writing-mode:lr-tb;text-anchor:start;fill:#162d50;fill-opacity:1;stroke:none;font-family:Serif;-inkscape-font-specification:Serif"
         id="g3883"
         transform="translate(-564.90439,-50.961774)">
        <path
           d="m 269.54507,421.1725 c -2e-5,-4.17472 1.4975,-7.80508 4.49258,-10.89109 3.08577,-3.0856 6.76151,-4.6285 11.02723,-4.62871 4.17487,2.1e-4 340.10004,483.89095 343.09514,486.97655 3.08575,3.08601 4.62865,6.71637 4.62871,10.89109 -6e-5,4.26587 -1.49758,7.89623 -4.49257,10.89109 -2.90435,2.99523 -6.53471,4.49275 -10.89109,4.49258 -4.26572,1.7e-4 -7.94146,-1.49735 -11.02723,-4.49258 C 603.38276,911.41657 269.54505,425.43837 269.54507,421.1725 m 6.12624,59.49258 -23.68812,0 0,-14.56683 8.01681,0 7.14286,0 257.14285,365 6.42857,0 5,0 7.14286,0 10.72082,0 0,158.87376 c 0,14.88449 -4.44725,26.54699 -13.34159,34.98759 -8.80366,8.5313 -20.96537,12.797 -36.48515,12.7971 -6.53465,-10e-5 -265.60878,-365.77154 -271.50813,-367.31439 -5.99008,-1.4522 -11.79866,-3.6758 -17.42574,-6.67079 l 0,-29.81436 12.93317,0 c 0.63533,8.71284 2.9043,15.11135 6.80693,19.19555 3.81188,4.08411 9.43894,6.12619 16.88119,6.12624 8.25906,-5e-5 14.33991,-2.81358 18.24257,-8.4406 3.99337,-5.53634 5.99007,-14.15844 5.9901,-25.86634 l 0,-144.30693"
           style="font-size:278.81188965px;fill:#162d50"
           id="path3885"
           inkscape:connector-curvature="0"
           sodipodi:nodetypes="cccccccccccccccccccscccccccccsc" />
        <path
           d="m 461.7728,509.93488 c 6.353,1.72452 330.36997,376.81705 334.90807,380.99187 4.62855,4.08425 8.75809,9.84745 12.38861,17.28961 l 29.54208,60.30941 -63.47942,-76.16816 0,14.43069 -47.92079,0 -31.7203,-64.66584 c -6.08099,-12.52468 -11.66267,-20.60223 -16.74505,-24.23268 -5.08263,-3.72103 -12.07107,-5.58159 -20.96535,-5.58168 l -30.35891,0 0,80.04951 28.72525,0 0,14.43069 -82.22773,0 -230.31478,-310.40539 25.86634,0 0,-174.25744 -25.86634,0 0,-14.56683 103.05694,0 c 19.78534,2.1e-4 353.60428,376.86253 364.314,386.30128 10.80016,9.43912 16.20032,22.82607 16.2005,40.16089 -1.8e-4,13.97703 -3.9482,25.00425 -11.84406,33.08168 -7.80544,7.98691 -19.46797,12.97866 -34.98763,14.97525 M 397.10696,501.76657 755.83928,873.90943 c 9.51113,9.86669 23.82413,-3.22184 30.35891,-9.66585 6.53451,-6.53452 9.80183,-16.60877 9.80198,-30.22277 -1.5e-4,-13.6137 -3.26747,-23.64257 -9.80198,-30.08663 -6.53478,-6.44371 -16.65441,-9.66566 -30.35891,-9.66585 l -40.16089,0 0,79.6411"
           style="font-size:278.81188965px;fill:#162d50"
           id="path3887"
           inkscape:connector-curvature="0"
           sodipodi:nodetypes="ccccccccccccccccccccccccccscccccc" />
      </g>
    </clipPath>
  </defs>
  <sodipodi:namedview
     id="base"
     pagecolor="#ffffff"
     bordercolor="#666666"
     borderopacity="1.0"
     inkscape:pageopacity="0.0"
     inkscape:pageshadow="2"
     inkscape:zoom="0.49497475"
     inkscape:cx="534.13151"
     inkscape:cy="323.73613"
     inkscape:document-units="px"
     inkscape:current-layer="layer1"
     showgrid="false"
     inkscape:window-width="1280"
     inkscape:window-height="1000"
     inkscape:window-x="1366"
     inkscape:window-y="24"
     inkscape:window-maximized="1" />
  <metadata
     id="metadata7">
    <rdf:RDF>
      <cc:Work
         rdf:about="">
        <dc:format>image/svg+xml</dc:format>
        <dc:type
           rdf:resource="http://purl.org/dc/dcmitype/StillImage" />
        <dc:title></dc:title>
      </cc:Work>
    </rdf:RDF>
  </metadata>
  <g
     inkscape:label="Layer 1"
     inkscape:groupmode="layer"
     id="layer1"
     transform="translate(0,-252.36218)">
    <g
       id="g3913"
       transform="matrix(1.1563479,0,0,1.1563479,-30.21605,42.261869)">
      <g
         transform="translate(541.44213,-533.36027)"
         id="g3825">
        <path
           inkscape:connector-curvature="0"
           transform="translate(23.462262,584.32203)"
           style="fill:#ffffff;fill-opacity:1;fill-rule:evenodd;stroke:none"
           d="m 131.42856,476.64789 c 0,179.09805 -145.187657,324.2857 -324.28571,324.2857 -179.09805,0 -324.2857,-145.18765 -324.2857,-324.2857 0,-179.09805 145.18765,-324.28571 324.2857,-324.28571 179.098053,0 324.28571,145.18766 324.28571,324.28571 z"
           id="path2985-9" />
        <path
           style="fill:#214478;fill-opacity:1;fill-rule:evenodd;stroke:none"
           d="m -169.37926,736.67304 c -179.09805,0 -324.3125,145.21445 -324.3125,324.31246 0,32.9749 4.94489,64.7687 14.09375,94.75 l 147.34375,0 0,30 -136.53125,0 c 48.88034,117.1674 164.52182,199.5313 299.40625,199.5313 179.098046,0 324.28125,-145.1832 324.28125,-324.2813 0,-41.2422 -7.71124,-80.67947 -21.75,-116.96871 l -235.0625,0 0,-14.625 228.96875,0 C 76.592776,815.86024 -37.132094,736.67304 -169.37926,736.67304 z"
           id="path2985-8"
           inkscape:connector-curvature="0" />
      </g>
      <g
         id="g3908">
        <path
           transform="translate(564.90439,50.961774)"
           style="fill:#162d50;fill-opacity:1;fill-rule:evenodd;stroke:none"
           d="m 131.42856,476.64789 c 0,179.09805 -145.187657,324.2857 -324.28571,324.2857 -179.09805,0 -324.2857,-145.18765 -324.2857,-324.2857 0,-179.09805 145.18765,-324.28571 324.2857,-324.28571 179.098053,0 324.28571,145.18766 324.28571,324.28571 z"
           id="path2985"
           clip-path="url(#clipPath3881)"
           inkscape:connector-curvature="0" />
        <text
           xml:space="preserve"
           style="font-size:23.2343235px;font-style:normal;font-variant:normal;font-weight:normal;font-stretch:normal;text-align:start;line-height:125%;letter-spacing:0px;word-spacing:0px;writing-mode:lr-tb;text-anchor:start;fill:#ffffff;fill-opacity:1;stroke:none;font-family:Serif;-inkscape-font-specification:Serif"
           x="233.86655"
           y="599.21857"
           id="text3755"
           sodipodi:linespacing="125%"><tspan
             sodipodi:role="line"
             id="tspan3757"
             x="233.86655"
             y="599.21857"
             style="font-size:278.81188965px;fill:#ffffff;fill-opacity:1">jR</tspan></text>
      </g>
    </g>
  </g>
</svg>
